<svg xmlns="http://www.w3.org/2000/svg" viewBox="0 0 977.37 793.89"><defs><style>.cls-1{fill:#bcc0d3;}.cls-2{fill:#333;}.cls-3{fill:#d6d8e4;}.cls-4{fill:none;}.cls-5{fill:#8693ca;}.cls-6{fill:#caa672;}.cls-7{fill:#ffce74;}.cls-8{fill:#be9352;}.cls-9{fill:#afa8ac;}.cls-10{fill:#37474f;}.cls-11{fill:#e27681;}.cls-12{fill:#f29c92;}.cls-13{fill:#60525d;}.cls-14{fill:#fff;}</style></defs><title>alamat-kosong</title><g id="Layer_2" data-name="Layer 2"><g id="Layer_1-2" data-name="Layer 1"><path class="cls-1" d="M235.52,468.28H104.36a34.63,34.63,0,0,0-3,69.12c1,.08,2,.15,3,.15H235.52a34.63,34.63,0,1,0,0-69.27Z"/><path class="cls-2" d="M84.28,608.4a31.38,31.38,0,0,0-15.1-3.85c-.28,0-.56,0-.84,0a31.52,31.52,0,0,0,.84,63c.28,0,.56,0,.84,0A31.51,31.51,0,0,0,84.28,608.4Z"/><path class="cls-3" d="M68.34,604.59c.28,0,.56,0,.84,0a31.38,31.38,0,0,1,15.1,3.85l17.11-71a34.39,34.39,0,0,1-15.58-5.28Z"/><path class="cls-3" d="M55,730l15-62.44c-.28,0-.56,0-.84,0a31.38,31.38,0,0,1-15.1-3.85L38.69,727.62a8.1,8.1,0,0,0-.18,2.36A44.41,44.41,0,0,0,0,774H93.3A44.41,44.41,0,0,0,55,730Z"/><rect class="cls-1" y="773.97" width="93.3" height="19.92"/><path class="cls-2" d="M246.81,605.66a31.49,31.49,0,1,0,23.34,30.42A31.48,31.48,0,0,0,246.81,605.66Z"/><path class="cls-3" d="M230.43,537.55v68.11a30.7,30.7,0,0,1,16.38,0v-70a34.49,34.49,0,0,1-11.3,1.92Z"/><path class="cls-3" d="M246.77,730c0-.15,0-.29,0-.44v-63a30.72,30.72,0,0,1-16.38,0v63c0,.15,0,.29,0,.44A44.41,44.41,0,0,0,192,774h93.31A44.41,44.41,0,0,0,246.77,730Z"/><rect class="cls-1" x="191.97" y="773.97" width="93.31" height="19.92"/><path class="cls-2" d="M262.75,304.61a31.41,31.41,0,0,0-23.07,10.09,62.45,62.45,0,0,1,28.69,52.45,31.52,31.52,0,0,0-5.62-62.54Z"/><path class="cls-3" d="M292,347.87a31.56,31.56,0,0,1-9.85,13.1l96.61,71a27.36,27.36,0,0,1,9.68-13.23Z"/><path class="cls-3" d="M167.21,468.15c-.44,0-.86.13-1.3.13h1.3Z"/><path class="cls-3" d="M105,490.79a12.13,12.13,0,0,0-12.13,12.13v0A12.13,12.13,0,0,0,105,515a11.94,11.94,0,0,0,1.85-.19A12.1,12.1,0,0,0,105,490.79Z"/><path class="cls-3" d="M247,502.91a12.19,12.19,0,1,0-.23,2.32A12.13,12.13,0,0,0,247,502.91Z"/><path class="cls-1" d="M265.64,228V205.46a26.32,26.32,0,0,0-26.31-26.32h0v75.14h0A26.32,26.32,0,0,0,265.64,228Z"/><path class="cls-3" d="M170.94,176.34h0A10.94,10.94,0,0,1,160,165.4V140.16a10.94,10.94,0,0,1,10.94-10.94h0a10.94,10.94,0,0,1,10.94,10.94V165.4A10.94,10.94,0,0,1,170.94,176.34Zm57.67,291.94c.63-1.19,1.24-2.39,1.8-3.62l32.37-71.39a62.74,62.74,0,0,0,5.6-25.91h0c0-.07,0-.14,0-.21a62.83,62.83,0,0,0-62.73-62.54H178.13V283.53h5.95a66.73,66.73,0,0,0,55.24-29.24h0V179.15h0A66.92,66.92,0,0,0,200.75,152a30.87,30.87,0,0,1-61.61,0,66.91,66.91,0,0,0-38.57,27.14v75.14a66.73,66.73,0,0,0,55.24,29.24h5.95v21.08h-27.5a62.4,62.4,0,0,0-34,10.09,63,63,0,0,0-16.9,16.12,62.38,62.38,0,0,0-11.79,36.33A31.33,31.33,0,0,1,59.08,362L31.56,438c-.06.17-.08.34-.13.52a8.19,8.19,0,0,0-.22.86,8.32,8.32,0,0,0-.09.88c0,.18-.05.35-.05.53s0,.13,0,.2a8.11,8.11,0,0,0,.09.91c0,.24.05.48.11.71a7.88,7.88,0,0,0,.24.76c.08.25.16.51.27.75s.24.45.36.66.26.48.41.7.33.4.5.6.33.4.52.58.39.33.6.49a7.82,7.82,0,0,0,.66.5c.19.12.4.22.61.33a8,8,0,0,0,.86.41l.17.08c.07,0,.14,0,.21,0a8.14,8.14,0,0,0,2.58.45h63.12l7.09,15.64c.56,1.23,1.17,2.44,1.8,3.62ZM202.73,202.73a9.15,9.15,0,1,1-9.15,9.15A9.15,9.15,0,0,1,202.73,202.73Zm-43.74,0a9.15,9.15,0,1,1-9.15,9.15A9.15,9.15,0,0,1,159,202.73Zm-7.9,27.85h48.62a24.31,24.31,0,1,1-48.62,0ZM50.94,432.64l21-58.08a62.71,62.71,0,0,0,5.16,18.7L95,432.64ZM202.55,111.78A31.51,31.51,0,1,1,171,80.26,31.51,31.51,0,0,1,202.55,111.78Z"/><path class="cls-4" d="M95,432.64,77.1,393.26a62.71,62.71,0,0,1-5.16-18.7l-21,58.08Z"/><path class="cls-5" d="M193.29,378.34a27.27,27.27,0,1,0-37.84,37.12,27.34,27.34,0,0,1,10.45-2.09c.45,0,.86.11,1.3.13a27.42,27.42,0,0,1,13.2,4.1,27.12,27.12,0,0,0,12.89-39.26Z"/><path class="cls-2" d="M59.08,362a31.33,31.33,0,0,0,12.44,5.17A62.38,62.38,0,0,1,83.3,330.82a63,63,0,0,1,16.9-16.12A31.51,31.51,0,1,0,59.08,362Z"/><circle class="cls-2" cx="158.99" cy="211.88" r="9.15"/><circle class="cls-2" cx="202.73" cy="211.88" r="9.15"/><path class="cls-2" d="M175.4,254.89a24.31,24.31,0,0,0,24.31-24.31H151.09A24.31,24.31,0,0,0,175.4,254.89Z"/><path class="cls-1" d="M169.94,180.92A30.93,30.93,0,0,0,200.75,152a66.88,66.88,0,0,0-16.67-2.1H155.8a66.88,66.88,0,0,0-16.67,2.1A30.93,30.93,0,0,0,169.94,180.92Z"/><path class="cls-1" d="M100.56,254.29h0V179.15h0a26.32,26.32,0,0,0-26.31,26.32V228A26.32,26.32,0,0,0,100.56,254.29Z"/><path class="cls-1" d="M149.84,374l-39.55-29.51L107,348.83l39.56,29.52A27.37,27.37,0,0,1,149.84,374Z"/><path class="cls-1" d="M193.29,378.34l39.56-29.51-3.26-4.37L190,374A27.26,27.26,0,0,1,193.29,378.34Z"/><rect class="cls-6" x="165.91" y="302.88" width="238.73" height="165.4"/><rect class="cls-7" x="259.79" y="302.88" width="50.97" height="77.84"/><rect class="cls-8" x="222.79" y="187.1" width="181.84" height="115.78"/><rect class="cls-7" x="288.23" y="187.1" width="50.97" height="50.62"/><rect class="cls-6" x="288.23" y="71.32" width="116.41" height="115.78"/><rect class="cls-7" x="320.95" y="71.32" width="50.97" height="50.62"/><path class="cls-1" d="M404.63,413.38a27.45,27.45,0,1,0,27.45,27.45A27.21,27.21,0,0,0,404.63,413.38Z"/><path class="cls-4" d="M105,490.79a12.13,12.13,0,0,0-12.13,12.13v0A12.13,12.13,0,0,0,105,515a11.94,11.94,0,0,0,1.85-.19A12.1,12.1,0,0,0,105,490.79Z"/><path class="cls-4" d="M234.92,490.79A12.08,12.08,0,1,0,247,502.91,12.13,12.13,0,0,0,234.92,490.79Z"/><path class="cls-4" d="M167.21,468.15c-.44,0-.86.13-1.3.13h1.3Z"/><path class="cls-1" d="M167.21,468.28h5.46v-.94a27.35,27.35,0,0,0-5.46-53.83c-.44,0-.86-.13-1.3-.13a27.45,27.45,0,0,0,0,54.9c.45,0,.86-.11,1.3-.13Z"/><path class="cls-9" d="M754.08,793.89H706.81V760.78h25.75l26.32,14.8C767.65,780.52,764.15,793.89,754.08,793.89Z"/><path class="cls-9" d="M567,793.89H519.77V760.78h25.75l26.32,14.8C580.61,780.52,577.1,793.89,567,793.89Z"/><polygon class="cls-4" points="502.7 265.67 519.02 269.08 512.95 238.54 502.7 265.67"/><path class="cls-10" d="M539.46,125.78H581V76.41a16.46,16.46,0,1,1,0-32.91l19.61-25.43,9.12-.86a41.49,41.49,0,0,1,42.58,26.29A43.5,43.5,0,0,0,608.84,0H592.58a46.43,46.43,0,0,0-46.43,46.43c0,35.87-45.26,89.11-73.93,95.25a88.35,88.35,0,0,0,10.11,18.84A64.39,64.39,0,0,1,539.46,125.78Z"/><path class="cls-11" d="M707.17,125.78H539.46a64.79,64.79,0,0,0-62.05,47.12l-26,93.17a30,30,0,0,0,28.89,38H671.73l23-115.78L920,148.66V125.78ZM502.7,265.67,513,238.54,519,269.08Z"/><path class="cls-12" d="M609.76,17.21l-9.12.86L581,43.49a16.46,16.46,0,1,0,0,32.91v49.37h35.65V95.61h5.85a29.8,29.8,0,0,0,29.8-29.8V43.49A41.49,41.49,0,0,0,609.76,17.21Z"/><path class="cls-13" d="M526,304.11H671.73l60.82,456.67H706.81L606.66,393.06H591.05L545.52,760.78H519.77L507.82,393.95A199.28,199.28,0,0,1,526,304.11Z"/><path class="cls-14" d="M604.86,60.95a18.06,18.06,0,1,0,36.13,0Z"/><rect class="cls-6" x="564.57" y="188.33" width="181.84" height="115.78"/><rect class="cls-7" x="630.01" y="188.33" width="50.97" height="50.62"/><polygon class="cls-12" points="564.57 278.61 579.17 270.02 598.86 281.85 598.86 304.11 564.57 304.11 564.57 278.61"/><polygon class="cls-12" points="920.03 125.78 945.97 115.75 977.37 120.76 977.37 129.21 959.62 137.59 951.43 156.85 920.03 148.66 920.03 125.78"/><circle class="cls-14" cx="170.94" cy="112.12" r="16.37"/></g></g></svg>